<?xml version="1.0" encoding="UTF-8"?>
<svg width="19px" height="18px" viewBox="0 0 19 18" version="1.1" xmlns="http://www.w3.org/2000/svg" xmlns:xlink="http://www.w3.org/1999/xlink">
    <!-- Generator: sketchtool 41 (35326) - http://www.bohemiancoding.com/sketch -->
    <title>16528882-4341-46D5-96E4-A56DA125EF23</title>
    <desc>Created with sketchtool.</desc>
    <defs></defs>
    <g id="Page-1" stroke="none" stroke-width="1" fill="none" fill-rule="evenodd">
        <g id="專案管理" transform="translate(-1096.000000, -511.000000)" fill="#FFFFFF">
            <g id="Group" transform="translate(242.000000, 191.000000)">
                <g id="Group-4" transform="translate(829.000000, 309.000000)">
                    <g id="Outline" transform="translate(25.384024, 11.000000)">
                        <path d="M3.62628912,1.5 L3.62628912,1.5 L5.43943369,0 L5.43943369,15 L3.62628912,13.5 L18.1314456,13.5 L16.3183011,15 L16.3183011,0 L18.1314456,1.5 L3.62628912,1.5 Z M3.62628912,0 L18.1314456,0 L18.1314456,15 L3.62628912,15 L3.62628912,0 L3.62628912,0 Z M13.8788674,2.84342772 L13.8788674,4.65657228 L7.87886737,4.65657228 L7.87886737,2.84342772 L13.8788674,2.84342772 Z M13.8788674,5.84342772 L13.8788674,7.65657228 L7.87886737,7.65657228 L7.87886737,5.84342772 L13.8788674,5.84342772 Z M12.2222951,8.84342772 L12.2222951,10.6565723 L7.72229509,10.6565723 L7.72229509,8.84342772 L12.2222951,8.84342772 Z M1.81314456,3 L0,3 L0,17.25 L0,18 L14.5051565,18 L14.5051565,16.5 L1.81314456,16.5 L1.81314456,3 Z" id="Shape"></path>
                    </g>
                </g>
            </g>
        </g>
    </g>
</svg>